<svg width="64" height="64" viewBox="0 0 64 64" fill="none" xmlns="http://www.w3.org/2000/svg">
  <!-- Cabeça -->
  <circle cx="32" cy="20" r="12" fill="#1a1a1a" stroke="#333" stroke-width="2"/>
  
  <!-- Olhos -->
  <circle cx="28" cy="18" r="2" fill="#00ff00"/>
  <circle cx="36" cy="18" r="2" fill="#00ff00"/>
  
  <!-- Boca -->
  <path d="M28 24 Q32 26 36 24" stroke="#00ff00" stroke-width="1.5" fill="none"/>
  
  <!-- Corpo -->
  <rect x="24" y="32" width="16" height="20" fill="#1a1a1a" stroke="#333" stroke-width="2" rx="2"/>
  
  <!-- Braços -->
  <rect x="16" y="34" width="8" height="16" fill="#1a1a1a" stroke="#333" stroke-width="2" rx="4"/>
  <rect x="40" y="34" width="8" height="16" fill="#1a1a1a" stroke="#333" stroke-width="2" rx="4"/>
  
  <!-- Pernas -->
  <rect x="26" y="52" width="6" height="10" fill="#1a1a1a" stroke="#333" stroke-width="2" rx="3"/>
  <rect x="32" y="52" width="6" height="10" fill="#1a1a1a" stroke="#333" stroke-width="2" rx="3"/>
  
  <!-- Detalhes mecânicos -->
  <circle cx="32" cy="42" r="3" fill="#333" stroke="#666" stroke-width="1"/>
  <circle cx="32" cy="42" r="1.5" fill="#00ff00"/>
  
  <!-- Antenas -->
  <line x1="28" y1="8" x2="28" y2="12" stroke="#333" stroke-width="2"/>
  <line x1="36" y1="8" x2="36" y2="12" stroke="#333" stroke-width="2"/>
  <circle cx="28" cy="8" r="1" fill="#00ff00"/>
  <circle cx="36" cy="8" r="1" fill="#00ff00"/>
</svg>
